{"title":"Psycho(1960)MP-4[DaScubaDude]","uid":12799970,"size":1102350068,"categoryP":"video","categoryS":"movies","magnet":"?xt=urn:btih:945e0535ec1283d23a00713f1338e01c5b9c4af1&amp;dn=Psycho%281960%29MP-4%5BDaScubaDude%5D&amp;tr=udp%3A%2F%2Ftracker.leechers-paradise.org%3A6969&amp;tr=udp%3A%2F%2Fzer0day.ch%3A1337&amp;tr=udp%3A%2F%2Fopen.demonii.com%3A1337&amp;tr=udp%3A%2F%2Ftracker.coppersurfer.tk%3A6969&amp;tr=udp%3A%2F%2Fexodus.desync.com%3A6969","seeders":0,"leechers":1,"uploader":"dascuba","files":1,"time":1448036194,"description":"See More on IMDb Pro »\r\n337\r\nPsycho (1960)\r\nR  |  109 min  |  Horror, Mystery, Thriller  |  8 September 1960 (USA)\r\n8.5 Your rating:   -/10   Ratings: 8.5/10 from 387,642 users   \r\nReviews: 982 user | 292 critic\r\nA Phoenix secretary steals $40,000 from her employer's client, goes on the run and checks into a remote motel run by a young man under the domination of his mother.\r\n\r\nDirector: Alfred Hitchcock\r\nWriters: Joseph Stefano (screenplay), Robert Bloch (novel)\r\nStars: Anthony Perkins, Janet Leigh, Vera Miles\r\n\r\nGeneral\r\nComplete name                            : C:PsychoPSYCHO_Title1.mp4\r\nFormat                                   : MPEG-4\r\nFormat profile                           : Base Media\r\nCodec ID                                 : isom\r\nFile size                                : 1.03 GiB\r\nDuration                                 : 1h 48mn\r\nOverall bit rate                         : 1 350 Kbps\r\nMovie name                               : PSYCHO\r\nGenre                                    : Thriller\r\nWriting application                      : Lavf54.6.100\r\n\r\nVideo\r\nID                                       : 1\r\nFormat                                   : AVC\r\nFormat/Info                              : Advanced Video Codec\r\nFormat profile                           :   \r\nFormat settings, CABAC                   : No\r\nFormat settings, ReFrames                : 6 frames\r\nCodec ID                                 : avc1\r\nCodec ID/Info                            : Advanced Video Coding\r\nDuration                                 : 1h 48mn\r\nBit rate                                 : 1 205 Kbps\r\nWidth                                    : 720 pixels\r\nHeight                                   : 404 pixels\r\nDisplay aspect ratio                     : 16:9\r\nFrame rate mode                          : Constant\r\nFrame rate                               : 29.970 fps\r\nColor space                              : YUV\r\nChroma subsampling                       : 4:2:0\r\nBit depth                                : 8 bits\r\nScan type                                : Progressive\r\nBits/(Pixel*Frame)                       : 0.138\r\nStream size                              : 938 MiB (89%)\r\n\r\nAudio\r\nID                                       : 2\r\nFormat                                   : AAC\r\nFormat/Info                              : Advanced Audio Codec\r\nFormat profile                           : LC\r\nCodec ID                                 : 40\r\nDuration                                 : 1h 48mn\r\nBit rate mode                            : Constant\r\nBit rate                                 : 138 Kbps\r\nChannel(s)                               : 2 channels\r\nChannel positions                        : Front: L R\r\nSampling rate                            : 44.1 KHz\r\nCompression mode                         : Lossy\r\nStream size                              : 108 MiB (10%)","torrent":{"xt":"urn:btih:945e0535ec1283d23a00713f1338e01c5b9c4af1","amp;dn":"Psycho%281960%29MP-4%5BDaScubaDude%5D","amp;tr":["udp%3A%2F%2Ftracker.leechers-paradise.org%3A6969","udp%3A%2F%2Fzer0day.ch%3A1337","udp%3A%2F%2Fopen.demonii.com%3A1337","udp%3A%2F%2Ftracker.coppersurfer.tk%3A6969","udp%3A%2F%2Fexodus.desync.com%3A6969"],"infoHash":"945e0535ec1283d23a00713f1338e01c5b9c4af1","infoHashBuffer":{"type":"Buffer","data":[148,94,5,53,236,18,131,210,58,0,113,63,19,56,224,28,91,156,74,241]},"announce":[],"urlList":[]}}